<?xml version="1.0" standalone="no"?>
<!DOCTYPE svg PUBLIC "-//W3C//DTD SVG 20010904//EN"
 "http://www.w3.org/TR/2001/REC-SVG-20010904/DTD/svg10.dtd">
<svg version="1.0" xmlns="http://www.w3.org/2000/svg"
 width="509.000000pt" height="509.000000pt" viewBox="0 0 509.000000 509.000000"
 preserveAspectRatio="xMidYMid meet">
<metadata>
Created by potrace 1.11, written by Peter Selinger 2001-2013
</metadata>
<g transform="translate(0.000000,509.000000) scale(0.100000,-0.100000)"
fill="#000000" stroke="none">
<path d="M3695 4721 c6 -11 3 -13 -13 -9 -12 4 -20 3 -18 -1 6 -9 -107 -7
-122 3 -6 3 -13 2 -16 -3 -3 -5 -24 -8 -45 -7 -22 1 -38 -1 -36 -4 2 -3 -13
-6 -33 -7 -20 0 -48 -2 -62 -5 -14 -3 -31 0 -39 6 -12 9 -13 8 -6 -3 6 -11 4
-13 -8 -8 -9 3 -19 3 -21 -2 -3 -4 -20 -7 -38 -6 -18 2 -41 -2 -52 -7 -14 -8
-17 -7 -11 3 6 8 4 10 -6 3 -18 -11 -37 -15 -74 -15 -16 0 -34 -4 -40 -8 -5
-5 -18 -9 -27 -10 -42 -3 -48 -5 -48 -15 0 -6 -4 -5 -9 3 -7 10 -13 12 -23 5
-7 -6 -25 -11 -40 -12 -37 -2 -52 -6 -58 -14 -3 -4 -25 -9 -49 -12 -24 -2 -48
-11 -52 -18 -7 -11 -9 -11 -9 0 0 8 -5 10 -12 5 -15 -9 -35 -14 -60 -16 -10
-1 -18 -5 -18 -9 0 -4 -11 -8 -25 -8 -14 0 -25 -6 -25 -12 0 -9 -4 -8 -10 2
-5 8 -10 10 -10 4 0 -10 -6 -12 -49 -16 -11 -1 -17 -7 -14 -12 4 -5 -1 -7 -10
-3 -9 3 -22 0 -29 -7 -8 -7 -21 -12 -31 -10 -9 1 -19 -2 -23 -7 -3 -5 -10 -7
-15 -4 -5 4 -9 2 -9 -4 0 -5 -11 -8 -25 -7 -13 2 -22 0 -20 -4 4 -7 -6 -11
-57 -25 -5 -2 -11 -4 -15 -5 -5 -1 -11 -2 -15 -1 -5 0 -8 -4 -8 -10 0 -5 -4
-8 -9 -4 -5 3 -16 -1 -24 -9 -8 -8 -18 -12 -21 -8 -4 3 -11 0 -16 -8 -9 -13
-10 -13 -10 0 0 10 -3 11 -8 3 -4 -6 -14 -13 -22 -15 -8 -2 -21 -9 -28 -16 -8
-7 -18 -10 -23 -7 -5 4 -9 1 -9 -4 0 -6 -5 -11 -11 -11 -5 0 -7 6 -3 13 4 6
-3 2 -15 -11 -12 -12 -26 -20 -32 -17 -5 4 -9 1 -9 -4 0 -6 -9 -11 -20 -11
-11 0 -20 -4 -20 -9 0 -5 -13 -11 -29 -14 -16 -3 -36 -13 -44 -22 -9 -8 -21
-15 -27 -15 -16 0 -74 -31 -82 -44 -4 -6 -8 -7 -8 -2 0 5 -10 1 -22 -10 -14
-13 -19 -14 -14 -4 4 9 2 8 -7 -2 -8 -10 -22 -18 -31 -18 -9 0 -16 -5 -16 -11
0 -5 -5 -7 -10 -4 -6 3 -13 -1 -16 -9 -3 -9 -10 -13 -15 -10 -5 3 -9 0 -9 -6
0 -6 -5 -8 -10 -5 -6 3 -13 0 -16 -9 -3 -8 -11 -13 -19 -10 -7 3 -15 -2 -19
-11 -3 -9 -10 -13 -16 -10 -5 3 -10 -1 -10 -10 0 -9 -4 -13 -10 -10 -5 3 -10
0 -10 -7 0 -9 -3 -9 -10 2 -8 13 -10 12 -10 -4 0 -11 -3 -17 -6 -13 -4 3 -13
-1 -21 -9 -8 -8 -19 -11 -25 -8 -6 4 -8 2 -5 -3 4 -6 -3 -13 -14 -16 -13 -4
-18 -10 -13 -18 4 -8 3 -10 -5 -5 -7 5 -26 -3 -45 -18 -19 -14 -37 -22 -41
-18 -5 4 -6 3 -3 -3 5 -9 -15 -36 -27 -35 -21 1 -26 -1 -21 -8 2 -4 -4 -14
-16 -21 -16 -10 -19 -10 -13 1 3 7 0 5 -8 -4 -8 -10 -17 -18 -21 -18 -13 0
-35 -28 -28 -35 4 -4 0 -6 -8 -3 -14 4 -38 -13 -82 -59 -12 -13 -26 -23 -31
-23 -5 0 -18 -10 -28 -22 -11 -11 -19 -18 -19 -14 0 4 -13 -7 -29 -25 -16 -17
-34 -28 -40 -25 -6 4 -11 0 -11 -8 0 -9 -4 -16 -10 -16 -5 0 -10 -7 -10 -15 0
-8 -3 -14 -7 -13 -5 1 -21 -10 -37 -25 -16 -14 -34 -24 -40 -20 -6 3 -8 3 -4
-1 9 -11 -23 -46 -35 -39 -6 3 -7 1 -3 -5 3 -6 -3 -16 -14 -22 -11 -6 -17 -16
-14 -22 4 -6 3 -8 -3 -5 -6 4 -21 -8 -34 -25 -13 -17 -30 -37 -37 -44 -6 -7
-12 -17 -12 -23 0 -6 -6 -11 -12 -11 -9 0 -8 -4 2 -10 10 -6 11 -10 3 -10 -7
0 -13 -9 -13 -21 0 -11 -4 -17 -10 -14 -5 3 -10 1 -10 -4 0 -6 3 -11 8 -11 11
0 9 -104 -3 -112 -6 -5 -5 -8 4 -8 7 0 11 -6 7 -15 -3 -8 -1 -15 4 -15 6 0 9
-3 9 -7 -1 -5 0 -11 1 -15 1 -5 3 -12 4 -17 2 -16 51 -75 124 -148 39 -40 72
-78 72 -83 0 -6 4 -9 9 -6 4 3 16 -3 26 -14 10 -11 24 -20 30 -20 7 0 16 -7
19 -16 3 -8 10 -12 16 -9 5 3 10 1 10 -4 0 -6 11 -11 25 -11 14 0 25 -4 25 -9
0 -5 38 -9 85 -9 46 1 82 4 80 8 -3 4 11 11 30 14 20 4 33 11 30 16 -3 5 8 4
25 -1 16 -6 30 -17 30 -25 0 -8 7 -14 16 -14 8 0 13 -4 9 -9 -3 -5 3 -12 12
-15 10 -3 24 -15 31 -27 11 -17 11 -20 0 -13 -10 6 -10 4 1 -9 11 -14 11 -20
1 -32 -9 -11 -9 -15 -1 -15 7 0 9 -4 6 -10 -3 -5 45 -60 107 -122 62 -61 112
-116 110 -120 -1 -4 1 -7 6 -6 10 4 88 -74 84 -84 -1 -5 1 -7 6 -6 10 4 388
-374 384 -385 -1 -5 2 -6 6 -3 5 3 18 -6 28 -19 10 -14 24 -25 31 -25 7 0 12
-6 11 -12 -2 -7 3 -12 10 -10 6 1 11 -1 10 -5 -4 -11 99 -113 113 -113 7 0 10
-3 6 -6 -7 -7 35 -50 46 -46 4 1 6 -4 5 -10 -2 -7 3 -12 10 -10 6 1 12 -2 12
-8 0 -13 247 -259 254 -252 3 3 6 0 6 -7 0 -7 57 -69 128 -138 70 -70 126
-131 124 -136 -1 -5 2 -6 6 -3 5 3 18 -6 28 -19 10 -14 24 -25 31 -25 7 0 12
-6 10 -13 -1 -6 4 -11 10 -10 7 2 12 0 10 -5 -3 -10 40 -52 47 -44 3 3 6 0 6
-6 0 -14 80 -98 81 -86 0 5 4 -1 10 -14 5 -13 13 -20 19 -17 6 4 9 1 8 -7 -2
-7 3 -12 10 -11 6 2 12 -2 12 -7 0 -15 47 -60 54 -53 3 4 6 1 6 -6 0 -15 45
-61 60 -61 6 0 9 -3 7 -8 -2 -4 20 -30 49 -59 30 -28 54 -49 55 -45 0 4 4 -3
10 -16 5 -13 13 -21 18 -18 5 3 11 -4 14 -15 3 -12 9 -19 14 -16 4 2 24 -15
43 -39 19 -23 40 -43 45 -43 6 -1 19 -15 30 -31 11 -16 26 -30 33 -30 7 0 10
-5 7 -10 -3 -6 2 -10 11 -10 10 0 14 -3 11 -7 -4 -3 5 -15 20 -25 16 -10 24
-18 20 -18 -4 0 -2 -6 5 -14 7 -8 16 -12 21 -9 4 2 7 -1 7 -7 0 -6 5 -8 10 -5
6 3 10 1 10 -4 0 -15 27 -14 33 2 4 8 6 7 6 -3 1 -20 49 -19 62 1 8 13 13 6
10 -16 -1 -5 5 -2 12 7 8 10 17 15 20 11 4 -3 7 -1 7 6 0 7 4 10 8 7 10 -6 43
30 35 38 -4 3 0 6 8 6 8 0 19 12 26 27 15 36 23 112 11 119 -4 3 -5 10 -2 16
10 16 11 459 1 465 -4 2 -4 9 -1 15 10 15 11 259 1 265 -4 2 -5 9 -1 14 9 16
11 100 2 105 -5 3 -4 12 2 19 7 9 8 15 1 19 -6 4 -7 16 -3 29 10 29 9 78 -2
96 -6 10 -5 12 2 7 7 -4 12 -1 12 8 0 8 -5 18 -10 21 -6 4 -8 11 -4 16 9 16
11 100 2 105 -5 3 -4 12 2 19 7 9 8 15 1 19 -6 4 -7 16 -3 29 10 29 9 78 -2
96 -6 10 -5 12 2 7 7 -4 12 -1 12 8 0 8 -5 18 -10 21 -6 4 -8 11 -4 16 9 16
11 100 2 105 -5 3 -4 12 2 19 7 9 8 15 1 19 -6 4 -7 16 -3 29 10 29 9 78 -2
96 -6 10 -5 12 2 7 7 -4 12 -1 12 8 0 8 -5 18 -10 21 -6 4 -8 11 -4 16 9 16
11 100 2 105 -5 3 -4 12 2 19 7 9 8 15 1 19 -6 4 -7 16 -3 29 10 29 9 78 -2
96 -5 8 -5 12 0 8 7 -4 11 375 4 393 -1 3 -1 10 0 15 6 26 4 283 -2 279 -10
-6 2 27 16 45 8 11 8 13 -1 8 -9 -6 -12 9 -10 58 1 37 -1 69 -5 71 -5 3 -4 13
0 22 12 27 7 275 -7 280 -6 2 -9 8 -5 13 3 5 -4 9 -15 9 -11 0 -23 5 -27 12
-5 7 -2 9 7 4 8 -4 6 -1 -4 7 -13 11 -15 17 -7 22 9 6 9 10 -1 16 -8 5 -9 9
-4 9 6 0 9 26 8 60 -1 57 0 60 25 67 15 3 30 11 34 17 4 6 11 11 16 11 12 0
62 52 62 65 0 5 5 10 11 10 5 0 7 5 4 10 -3 6 -1 10 5 10 6 0 8 5 5 10 -3 6 0
13 9 16 8 3 13 14 11 24 -2 10 3 24 11 30 7 7 11 17 7 24 -8 13 -7 92 2 105 3
6 1 13 -5 16 -8 5 -8 11 0 20 6 7 7 16 3 18 -9 6 -8 80 1 103 3 7 1 16 -4 19
-5 3 -7 12 -3 20 3 9 0 22 -7 30 -10 12 -10 15 1 15 10 0 10 3 3 8 -6 4 -17
24 -25 46 -8 21 -24 46 -36 56 -12 9 -20 20 -17 23 3 3 -4 8 -15 12 -12 3 -21
10 -21 15 0 9 -40 25 -53 22 -5 -1 -6 2 -3 7 8 12 -50 32 -69 25 -8 -4 -15 -2
-15 4 0 6 -30 9 -77 8 -43 -1 -84 3 -92 9 -12 8 -13 7 -6 -4z m-891 -1533 c-6
-10 -4 -10 7 0 13 12 58 18 46 6 -3 -4 -2 -16 4 -27 6 -10 7 -17 2 -14 -6 4
-9 -9 -8 -29 3 -40 57 -99 81 -90 8 3 14 0 14 -7 0 -7 3 -8 8 -2 9 13 32 18
32 7 0 -5 7 -9 15 -9 8 0 12 4 9 9 -7 11 7 10 26 -2 10 -6 15 -27 16 -58 1
-52 1 -53 -64 -52 -25 1 -32 -3 -26 -12 4 -7 -3 -4 -16 7 -13 11 -20 14 -16 7
5 -9 3 -13 -5 -11 -22 3 -49 -12 -49 -28 0 -8 -4 -12 -9 -9 -5 4 -8 -5 -7 -19
2 -13 0 -22 -4 -20 -4 2 -6 -15 -4 -40 3 -42 -8 -66 -21 -45 -3 5 -17 10 -31
10 -13 0 -24 6 -25 13 0 9 -2 9 -5 0 -6 -13 -64 40 -64 58 0 6 -4 8 -9 4 -16
-9 -46 62 -43 100 1 6 3 27 4 47 2 21 -1 39 -5 41 -12 4 22 76 55 115 16 18
28 30 28 27 0 -2 15 4 33 15 38 23 40 24 31 8z m593 -1652 c-8 13 81 12 102 0
6 -4 11 -1 11 6 0 8 5 6 11 -5 6 -9 14 -15 20 -12 5 4 9 1 9 -5 0 -6 4 -9 8
-6 5 3 15 -7 23 -22 8 -15 17 -29 20 -32 3 -3 9 -17 13 -32 7 -30 8 -30 -56
-31 -20 0 -36 -6 -35 -11 1 -6 -4 -10 -10 -8 -7 1 -13 -3 -13 -9 0 -5 -4 -8
-8 -5 -5 3 -9 0 -10 -7 0 -7 -3 -25 -5 -42 -3 -16 0 -36 5 -42 7 -9 7 -13 0
-13 -7 0 -9 -8 -5 -17 3 -10 3 -15 -2 -11 -4 4 -14 3 -22 -3 -8 -7 -13 -8 -13
-1 0 5 -10 8 -22 4 -18 -4 -20 -2 -16 16 4 12 3 22 -1 22 -9 0 -7 42 3 58 4 7
3 12 -3 12 -5 0 -13 9 -16 20 -3 11 -13 20 -21 20 -8 0 -14 5 -14 11 0 6 -8 9
-19 6 -10 -2 -26 0 -36 6 -13 7 -16 6 -10 -3 5 -8 3 -11 -6 -8 -13 5 -16 25
-8 58 5 16 46 62 53 58 3 -2 12 6 21 17 9 11 14 13 10 5 -4 -10 -2 -9 7 2 10
13 15 14 27 5 10 -8 13 -8 8 -1z"/>
</g>
</svg>
